<svg xmlns="http://www.w3.org/2000/svg" version="1.1" xmlns:xlink="http://www.w3.org/1999/xlink" xmlns:svgjs="http://svgjs.dev/svgjs" width="1000" height="247" viewBox="0 0 1000 247"><g transform="matrix(1,0,0,1,-0.6060606060606233,-0.23734005035795747)"><svg viewBox="0 0 396 98" data-background-color="#ffffff" preserveAspectRatio="xMidYMid meet" height="247" width="1000" xmlns="http://www.w3.org/2000/svg" xmlns:xlink="http://www.w3.org/1999/xlink"><g id="tight-bounds" transform="matrix(1,0,0,1,0.2400000000000091,0.09416730742947266)"><svg viewBox="0 0 395.52 97.81166538514103" height="97.81166538514103" width="395.52"><g><svg viewBox="0 0 562.2589869254377 139.04603531790883" height="97.81166538514103" width="395.52"><g transform="matrix(1,0,0,1,166.7389869254377,40.19670790327311)"><svg viewBox="0 0 395.52 58.652619511362616" height="58.652619511362616" width="395.52"><g id="textblocktransform"><svg viewBox="0 0 395.52 58.652619511362616" height="58.652619511362616" width="395.52" id="textblock"><g><svg viewBox="0 0 395.52 58.652619511362616" height="58.652619511362616" width="395.52"><g transform="matrix(1,0,0,1,0,0)"><svg width="395.52" viewBox="0.37912625074386597 -36.38783645629883 248.74725341796875 36.98783493041992" height="58.652619511362616" data-palette-color="#1e1e1f"><g class="wordmark-text-0" data-fill-palette-color="primary" id="text-0"><path d="M17.5-3.45L17.5-3.45Q17.45-2 16.43-1 15.4 0 13.95-0.03 12.5-0.05 11.5-1.07 10.5-2.1 10.5-3.55L10.5-3.55Q10.55-5.1 10.45-17.7L10.45-17.7Q10.4-24.45 10.65-29L10.65-29Q6.65-29 3.9-28.95L3.9-28.95Q2.45-28.95 1.43-29.95 0.4-30.95 0.38-32.4 0.35-33.85 1.35-34.88 2.35-35.9 3.8-35.95L3.8-35.95Q6.95-36 14.15-36.02 21.35-36.05 24.5-36.05L24.5-36.05Q25.95-36.05 27-35.05 28.05-34.05 28.08-32.63 28.1-31.2 27.1-30.13 26.1-29.05 24.7-29.05L24.7-29.05Q21.55-29.05 17.65-29L17.65-29Q17.4-24.65 17.45-17.75L17.45-17.75Q17.55-5 17.5-3.45L17.5-3.45ZM54-2.65L54-2.65Q52.85-7.8 52-10.4L52-10.4Q51.1-12.65 49.95-13.7L49.95-13.7Q48.7-14.85 46.35-15.15L46.35-15.15Q45.8-15.1 44.85-15.08 43.9-15.05 43.85-15.05L43.85-15.05Q41.9-15 40.85-14.95L40.85-14.95 39.35-14.95Q39.4-8.15 39.4-3.45L39.4-3.45Q39.4-2 38.37-0.98 37.35 0.05 35.9 0.05 34.45 0.05 33.42-0.98 32.4-2 32.4-3.45L32.4-3.45Q32.4-9.1 32.3-18.45 32.2-27.8 32.2-32.45L32.2-32.45Q32.2-33.9 33.22-34.93 34.25-35.95 35.7-35.95L35.7-35.95 35.95-35.95Q43.1-36.85 49.25-35.9L49.25-35.9Q54-35.2 56.75-33.25L56.75-33.25Q60.9-30.35 60.65-25.45L60.65-25.45Q60.35-20.65 55.65-17.85L55.65-17.85Q57.45-15.75 58.55-12.83 59.65-9.9 60.8-4.35L60.8-4.35Q61.15-2.95 60.4-1.7 59.65-0.45 58.25-0.1 56.85 0.25 55.6-0.5 54.35-1.25 54-2.65L54-2.65ZM39.25-21.95L39.4-21.95Q43.55-22.45 46.5-22.15L46.5-22.15Q46.9-22.2 47.2-22.25L47.2-22.25Q50.15-22.75 51.95-23.75L51.95-23.75Q53.6-24.7 53.65-25.85L53.65-25.85Q53.75-26.85 52.8-27.5L52.8-27.5Q51.3-28.55 48.15-29L48.15-29Q44.35-29.6 39.2-29.25L39.2-29.25Q39.2-26.2 39.25-21.95L39.25-21.95ZM63.2-2.05L63.2-2.05Q62.6-3.4 63.15-4.7L63.15-4.7 74.35-33.55Q74.75-34.5 75.6-35.1 76.45-35.7 77.5-35.75L77.5-35.75Q78.6-35.95 79.67-35.38 80.75-34.8 81.3-33.75L81.3-33.75 85-24.55 89.35-13.8 92.8-4.8Q93.35-3.45 92.77-2.13 92.2-0.8 90.82-0.25 89.45 0.3 88.1-0.28 86.75-0.85 86.2-2.15L86.2-2.15 83.3-8.75Q77.7-8.9 72.2-8.65L72.2-8.65 69.75-2.05Q69.15-0.75 67.8-0.18 66.45 0.4 65.1-0.18 63.75-0.75 63.2-2.05L63.2-2.05ZM75.1-15.8L75.1-15.8Q77-15.8 80.6-15.8L80.6-15.8 77.95-23 75.1-15.8ZM112.44 0.6L112.44 0.6Q108.54 0.6 105.17-0.75 101.79-2.1 99.79-4.4L99.79-4.4Q97.84-6.55 96.34-10.63 94.84-14.7 94.84-17.8L94.84-17.8Q94.84-22.55 97.32-26.8 99.79-31.05 103.94-33.65 108.09-36.25 112.79-36.25L112.79-36.25Q115.74-36.25 118.59-35.15L118.59-35.15Q120.79-34.25 122.22-33.05 123.64-31.85 125.84-29.15L125.84-29.15Q126.99-27.8 126.99-26.65L126.99-26.65Q126.99-25.3 125.92-24.28 124.84-23.25 123.49-23.25L123.49-23.25Q122.04-23.25 121.04-24.45L121.04-24.45 118.84-27.05Q117.84-28.3 116.19-28.9 114.54-29.5 112.84-29.5L112.84-29.5Q109.99-29.5 107.42-27.88 104.84-26.25 103.27-23.58 101.69-20.9 101.69-17.9L101.69-17.9Q101.69-15.45 102.69-12.98 103.69-10.5 104.99-8.9L104.99-8.9Q105.99-7.7 108.39-6.9 110.79-6.1 113.44-6.1L113.44-6.1Q115.44-6.1 116.84-6.65 118.24-7.2 118.94-8.15L118.94-8.15Q119.44-8.85 120.04-10.6L120.04-10.6 120.84-12.6Q121.84-14.6 123.79-14.6L123.79-14.6Q125.14-14.6 126.22-13.63 127.29-12.65 127.29-11.25L127.29-11.25Q127.29-10.65 126.99-9.9L126.99-9.9 126.54-8.65Q126.04-7.3 125.57-6.28 125.09-5.25 124.34-4.15L124.34-4.15Q122.49-1.6 119.29-0.5 116.09 0.6 112.44 0.6L112.44 0.6ZM155.19-1L143.94-15.45 139.74-12Q139.89-7.95 140.09-3.25L140.09-3.25Q140.14-1.85 139.17-0.78 138.19 0.3 136.77 0.38 135.34 0.45 134.27-0.53 133.19-1.5 133.09-2.95L133.09-2.95Q132.34-18.35 132.54-32.95L132.54-32.95Q132.59-34.4 133.62-35.4 134.64-36.4 136.09-36.38 137.54-36.35 138.54-35.33 139.54-34.3 139.54-32.85L139.54-32.85Q139.44-26.5 139.54-20.9L139.54-20.9Q147.39-27.6 154.09-35.15L154.09-35.15Q155.09-36.2 156.52-36.25 157.94-36.3 159.02-35.3 160.09-34.3 160.14-32.88 160.19-31.45 159.19-30.35L159.19-30.35Q154.29-24.75 149.19-20.1L149.19-20.1 160.69-5.3Q161.59-4.2 161.39-2.75L161.39-2.75Q161.24-1.3 160.12-0.4 158.99 0.5 157.54 0.33 156.09 0.15 155.19-1L155.19-1Z" fill="#1e1e1f" data-fill-palette-color="primary"></path><path d="M214.226-3.35L214.226-3.35Q214.176-1.9 213.126-0.9 212.076 0.1 210.626 0.05 209.176 0 208.176-1.05 207.176-2.1 207.226-3.55L207.226-3.55Q207.326-6.8 207.126-22.75L207.126-22.75Q203.426-18.1 199.826-12.8L199.826-12.8Q198.976-11.6 197.576-11.33 196.176-11.05 194.976-11.85L194.976-11.85Q194.826-11.95 194.726-12.05L194.726-12.05Q194.176-12.4 193.776-12.9L193.776-12.9 186.076-22.6Q186.126-22.5 186.096-13.03 186.076-3.55 186.076-3.5L186.076-3.5Q186.076-2.05 185.046-1.03 184.026 0 182.576 0 181.126 0 180.096-1.03 179.076-2.05 179.076-3.5L179.076-3.5Q179.076-5.6 179.096-10.55 179.126-15.5 179.126-18.2 179.126-20.9 179.026-24.9L179.026-24.9Q178.926-28.45 178.676-32.25L178.676-32.25Q178.576-33.7 179.526-34.8 180.476-35.9 181.926-36L181.926-36Q182.676-36.05 183.326-35.8L183.326-35.8Q184.726-35.6 185.576-34.45L185.576-34.45 196.676-20.5Q202.076-28 207.676-34L207.676-34Q208.726-35.8 210.776-35.75L210.776-35.75Q212.226-35.7 213.226-34.65 214.226-33.6 214.176-32.15L214.176-32.15Q214.026-27.4 214.176-17.63 214.326-7.85 214.226-3.35L214.226-3.35ZM245.676 0.05L245.676 0.05Q238.266 0.05 225.476-0.1L225.476-0.1Q224.476-0.1 223.646-0.68 222.826-1.25 222.426-2.1L222.426-2.1Q221.826-3 221.826-4.05L221.826-4.05Q221.876-5.8 221.776-18.15L221.776-18.15Q221.726-27.15 222.226-32.3L222.226-32.3Q222.276-32.95 222.526-33.5L222.526-33.5Q222.926-34.5 223.776-35.13 224.626-35.75 225.726-35.8L225.726-35.8Q229.376-35.85 235.576-35.83 241.766-35.8 245.426-35.85L245.426-35.85Q246.876-35.85 247.896-34.85 248.926-33.85 248.926-32.43 248.926-31 247.946-29.98 246.976-28.95 245.516-28.95L245.516-28.95Q242.726-28.95 237.176-28.98 231.626-29 228.826-28.95L228.826-28.95Q228.676-25.9 228.626-21.75L228.626-21.75Q231.016-21.8 243.426-21.8L243.426-21.8Q244.876-21.8 245.896-20.8 246.926-19.8 246.926-18.38 246.926-16.95 245.896-15.93 244.876-14.9 243.426-14.9L243.426-14.9Q230.976-14.9 228.676-14.85L228.676-14.85Q228.766-9.25 228.726-6.95L228.726-6.95Q238.876-6.85 245.676-6.85L245.676-6.85Q247.126-6.85 248.126-5.85 249.126-4.85 249.126-3.4 249.126-1.95 248.126-0.95 247.126 0.05 245.676 0.05L245.676 0.05Z" fill="#77d4fc" data-fill-palette-color="secondary"></path></g></svg></g></svg></g></svg></g></svg></g><g><svg viewBox="0 0 139.04603531790883 139.04603531790883" height="139.04603531790883" width="139.04603531790883"><g><svg></svg></g><g id="icon-0"><svg viewBox="0 0 139.04603531790883 139.04603531790883" height="139.04603531790883" width="139.04603531790883"><g><path d="M0 69.523c0-38.397 31.127-69.523 69.523-69.523 38.397 0 69.523 31.127 69.523 69.523 0 38.397-31.127 69.523-69.523 69.523-38.397 0-69.523-31.127-69.523-69.523zM69.523 133.757c35.475 0 64.234-28.758 64.234-64.234 0-35.475-28.758-64.234-64.234-64.234-35.475 0-64.234 28.758-64.234 64.234 0 35.475 28.758 64.234 64.234 64.234z" data-fill-palette-color="accent" fill="#77d4fc" stroke="transparent"></path><ellipse rx="68.82778748236487" ry="68.82778748236487" cx="69.52301765895442" cy="69.52301765895442" fill="#77d4fc" stroke="transparent" stroke-width="0" fill-opacity="1" data-fill-palette-color="accent"></ellipse></g><g transform="matrix(1,0,0,1,45.19226028913744,32.744911942984295)"><svg viewBox="0 0 48.66151473963396 73.55621143194024" height="73.55621143194024" width="48.66151473963396"><g><svg xmlns="http://www.w3.org/2000/svg" xmlns:xlink="http://www.w3.org/1999/xlink" version="1.1" x="0" y="0" viewBox="26.509000778198242 14.491000175476074 46.983001708984375 71.01898956298828" enable-background="new 0 0 100 100" xml:space="preserve" height="73.55621143194024" width="48.66151473963396" class="icon-s-0" data-fill-palette-color="quaternary" id="s-0"><g fill="#001f3f" data-fill-palette-color="quaternary"><path fill="#001f3f" d="M50.014 14.491c-12.959 0-23.505 10.625-23.505 23.654 0 4.725 1.388 9.087 3.746 12.778l10.962 17.223c-0.61 0.252-1.193 0.504-1.748 0.812-2.831 1.51-5.134 3.914-5.134 7.073 0 3.188 2.303 5.592 5.134 7.102 2.858 1.538 6.521 2.377 10.545 2.377 3.997 0 7.66-0.839 10.519-2.377 2.83-1.51 5.134-3.914 5.134-7.102 0-3.159-2.304-5.563-5.134-7.073-0.556-0.308-1.11-0.56-1.721-0.812l10.962-17.223c2.358-3.691 3.718-8.053 3.718-12.778C73.491 25.116 62.946 14.491 50.014 14.491L50.014 14.491zM50.014 19.216c10.407 0 18.788 8.444 18.788 18.929 0 3.774-1.082 7.297-2.97 10.233l-15.79 24.884L34.196 48.378c-1.888-2.936-2.997-6.459-2.997-10.233C31.199 27.66 39.607 19.216 50.014 19.216L50.014 19.216zM50.014 27.912c-5.605 0-10.185 4.614-10.185 10.233 0 5.648 4.579 10.261 10.185 10.261 5.578 0 10.186-4.613 10.186-10.261C60.199 32.525 55.592 27.912 50.014 27.912L50.014 27.912zM50.014 32.637c3.053 0 5.468 2.432 5.468 5.508s-2.415 5.536-5.468 5.536-5.494-2.46-5.494-5.536S46.961 32.637 50.014 32.637L50.014 32.637zM43.825 72.256l4.219 6.626c0.416 0.644 1.193 1.063 1.97 1.063 0.777 0 1.555-0.419 1.971-1.063l4.219-6.626c0.776 0.252 1.498 0.531 2.137 0.867 1.97 1.034 2.636 2.181 2.636 2.907 0 0.755-0.666 1.901-2.636 2.936-1.998 1.063-4.995 1.817-8.326 1.817-3.357 0-6.354-0.755-8.325-1.817-1.97-1.034-2.636-2.181-2.636-2.936 0-0.727 0.666-1.873 2.636-2.907C42.299 72.787 43.021 72.508 43.825 72.256L43.825 72.256z" data-fill-palette-color="quaternary"></path></g></svg></g></svg></g></svg></g></svg></g></svg></g><defs></defs></svg><rect width="395.52" height="97.81166538514103" fill="none" stroke="none" visibility="hidden"></rect></g></svg></g></svg>