<svg xmlns="http://www.w3.org/2000/svg" version="1.1" xmlns:xlink="http://www.w3.org/1999/xlink" xmlns:svgjs="http://svgjs.dev/svgjs" width="128" height="128" viewBox="0 0 128 128"><g transform="matrix(0.533678756476684,0,0,0.533678756476684,29.934538665683128,12.760752631578946)"><svg viewBox="0 0 63 95" data-background-color="#ffffff" preserveAspectRatio="xMidYMid meet" height="193" width="128" xmlns="http://www.w3.org/2000/svg" xmlns:xlink="http://www.w3.org/1999/xlink"><g id="tight-bounds" transform="matrix(1,0,0,1,-0.08298358889875601,-0.24049999999999727)"><svg viewBox="0 0 63.16596717779751 95.481" height="95.481" width="63.16596717779751"><g><svg viewBox="0 0 63.16596717779751 95.481" height="95.481" width="63.16596717779751"><g><svg viewBox="0 0 63.16596717779751 95.481" height="95.481" width="63.16596717779751"><g id="textblocktransform"><svg viewBox="0 0 63.16596717779751 95.481" height="95.481" width="63.16596717779751" id="textblock"><g><svg viewBox="0 0 63.16596717779751 95.481" height="95.481" width="63.16596717779751"><g><svg viewBox="0 0 63.16596717779751 95.481" height="95.481" width="63.16596717779751"><g><svg xmlns="http://www.w3.org/2000/svg" xmlns:xlink="http://www.w3.org/1999/xlink" version="1.1" x="0" y="0" viewBox="26.509000000000004 14.491 46.983000000000004 71.01899999999998" enable-background="new 0 0 100 100" xml:space="preserve" height="95.481" width="63.16596717779751" class="icon-icon-0" data-fill-palette-color="accent" id="icon-0"><g fill="#77d4fc" data-fill-palette-color="accent"><path fill="#77d4fc" d="M50.014 14.491c-12.959 0-23.505 10.625-23.505 23.654 0 4.725 1.388 9.087 3.746 12.778l10.962 17.223c-0.61 0.252-1.193 0.504-1.748 0.812-2.831 1.51-5.134 3.914-5.134 7.073 0 3.188 2.303 5.592 5.134 7.102 2.858 1.538 6.521 2.377 10.545 2.377 3.997 0 7.66-0.839 10.519-2.377 2.83-1.51 5.134-3.914 5.134-7.102 0-3.159-2.304-5.563-5.134-7.073-0.556-0.308-1.11-0.56-1.721-0.812l10.962-17.223c2.358-3.691 3.718-8.053 3.718-12.778C73.491 25.116 62.946 14.491 50.014 14.491L50.014 14.491zM50.014 19.216c10.407 0 18.788 8.444 18.788 18.929 0 3.774-1.082 7.297-2.97 10.233l-15.79 24.884L34.196 48.378c-1.888-2.936-2.997-6.459-2.997-10.233C31.199 27.66 39.607 19.216 50.014 19.216L50.014 19.216zM50.014 27.912c-5.605 0-10.185 4.614-10.185 10.233 0 5.648 4.579 10.261 10.185 10.261 5.578 0 10.186-4.613 10.186-10.261C60.199 32.525 55.592 27.912 50.014 27.912L50.014 27.912zM50.014 32.637c3.053 0 5.468 2.432 5.468 5.508s-2.415 5.536-5.468 5.536-5.494-2.46-5.494-5.536S46.961 32.637 50.014 32.637L50.014 32.637zM43.825 72.256l4.219 6.626c0.416 0.644 1.193 1.063 1.97 1.063 0.777 0 1.555-0.419 1.971-1.063l4.219-6.626c0.776 0.252 1.498 0.531 2.137 0.867 1.97 1.034 2.636 2.181 2.636 2.907 0 0.755-0.666 1.901-2.636 2.936-1.998 1.063-4.995 1.817-8.326 1.817-3.357 0-6.354-0.755-8.325-1.817-1.97-1.034-2.636-2.181-2.636-2.936 0-0.727 0.666-1.873 2.636-2.907C42.299 72.787 43.021 72.508 43.825 72.256L43.825 72.256z" data-fill-palette-color="accent"></path></g></svg></g></svg></g></svg></g></svg></g></svg></g></svg></g><defs></defs></svg><rect width="63.16596717779751" height="95.481" fill="none" stroke="none" visibility="hidden"></rect></g></svg></g></svg>